<svg id="svg" fill="#54b0bf" stroke="#54b0bf" width="200" height="200" version="1.1" viewBox="144 144 512 512" xmlns="http://www.w3.org/2000/svg">
    <g id="IconSvg_bgCarrier" stroke-width="0"></g>
    <g id="IconSvg_tracerCarrier" stroke-linecap="round" stroke-linejoin="round" stroke="#CCCCCC" stroke-width="0">
      <path xmlns="http://www.w3.org/2000/svg" d="m400 189.03c-58.137 0-105.54 47.621-105.54 105.82 0 58.203 47.398 105.98 105.54 105.98s105.7-47.785 105.7-105.98c0-58.203-47.562-105.82-105.7-105.82zm0 41.984c35.387 0 63.672 28.266 63.672 63.836 0 35.57-28.285 64-63.672 64s-63.672-28.43-63.672-64c0-35.57 28.285-63.836 63.672-63.836zm-0.32812 178.19c-100.21 0.1875-183.11 79.523-188.11 179.79-0.26953 5.75 1.832 11.359 5.8164 15.512 3.9844 4.1562 9.5 6.4922 15.258 6.4648h334.89-0.003906c5.7305-0.015625 11.203-2.375 15.148-6.5234 3.9492-4.1484 6.0312-9.7305 5.7617-15.453-5.0117-100.39-88.102-179.77-188.43-179.79zm0 42.023h0.32812c69.652 0.007813 121.67 51.812 136.53 117.75h-272.9c14.84-65.789 66.562-117.55 136.04-117.75z"></path>

      </g>
     <g id="IconSvg_iconCarrier">
      <path xmlns="http://www.w3.org/2000/svg" d="m400 189.03c-58.137 0-105.54 47.621-105.54 105.82 0 58.203 47.398 105.98 105.54 105.98s105.7-47.785 105.7-105.98c0-58.203-47.562-105.82-105.7-105.82zm0 41.984c35.387 0 63.672 28.266 63.672 63.836 0 35.57-28.285 64-63.672 64s-63.672-28.43-63.672-64c0-35.57 28.285-63.836 63.672-63.836zm-0.32812 178.19c-100.21 0.1875-183.11 79.523-188.11 179.79-0.26953 5.75 1.832 11.359 5.8164 15.512 3.9844 4.1562 9.5 6.4922 15.258 6.4648h334.89-0.003906c5.7305-0.015625 11.203-2.375 15.148-6.5234 3.9492-4.1484 6.0312-9.7305 5.7617-15.453-5.0117-100.39-88.102-179.77-188.43-179.79zm0 42.023h0.32812c69.652 0.007813 121.67 51.812 136.53 117.75h-272.9c14.84-65.789 66.562-117.55 136.04-117.75z"></path>

      </g>
      </svg>